# xmcd
#
# Track frame offsets:
#	150
#	13382
#	27234
#	37440
#	47254
#	57681
#	74241
#	84652
#	101753
#	110401
#	121362
#	135702
#	144769
#	156574
#	166890
#	180334
#	195605
#	204834
#
# Disc length: 2862 seconds
#
# Revision: 1
# Processed by: cddbd v1.5.1PL2 Copyright (c) Steve Scherf et al.
# Submitted via: audiograbber 1.83.01
#
DISCID=090b2c12
DTITLE=Вадим Головня - Пока люблю я...
DYEAR=2004
DGENRE=Авторская песня
TTITLE0=Пятьдесят моих лет
TTITLE1=Романс о Романе
TTITLE2=Весенняя
TTITLE3=Полярная
TTITLE4=Детки
TTITLE5=Отец
TTITLE6=Посвящение жене
TTITLE7=Блюз
TTITLE8=Не поговорили
TTITLE9=Помогите Господу
TTITLE10=Я сидел на кухне...
TTITLE11=Люблю и верю
TTITLE12=Ты приснись мне..
TTITLE13=Наши песни...
TTITLE14=Я Вами восхищён
TTITLE15=Любви весенние глаза
TTITLE16=Лето
TTITLE17=Пока люблю я...
EXTD=
EXTT0=
EXTT1=
EXTT2=
EXTT3=
EXTT4=
EXTT5=
EXTT6=
EXTT7=
EXTT8=
EXTT9=
EXTT10=
EXTT11=
EXTT12=
EXTT13=
EXTT14=
EXTT15=
EXTT16=
EXTT17=
PLAYORDER=
